<svg xmlns="http://www.w3.org/2000/svg" xmlns:svg="http://www.w3.org/2000/svg" id="Capa_1" width="76.664" height="128.251" x="0" y="0" version="1.1" viewBox="0 0 76.664 128.251" xml:space="preserve"><metadata id="metadata3468"/><g id="g3428" transform="translate(-7.9878665e-4,-5.1661327)"><path id="path3432" d="M 76.151,80.896 C 77.465,66.89 62.145,65.577 62.145,65.577 57.771,52.885 46.39,59.45 46.39,59.45 40.701,46.758 29.322,55.511 29.322,55.511 27.912,55.092 25.613,11.796 24.414,11.604 23.44,7.068 14.011,-1.728 12.511,14.772 c 0,36.5 -1.135,47.304 -1.135,47.304 C 9.188,67.328 5.31,80.458 5.31,80.458 -3.006,89.649 0.933,96.214 0.933,96.214 c 7.002,12.255 21.385,28.449 21.385,28.449 6.129,5.252 2.627,8.316 2.627,8.316 l 42.455,0.438 2.334,-7.878 c 9.628,-18.382 6.417,-44.643 6.417,-44.643 z" style="fill:#fff;fill-opacity:1"/></g></svg>